<svg width="30" height="30" viewBox="0 0 30 30" fill="none" xmlns="http://www.w3.org/2000/svg">
<g clip-path="url(#clip0_108_590)">
<rect x="0.22168" y="12.7522" width="17.0738" height="17.0738" fill="#7595FD"/>
<path d="M13.6369 7.87398H17.2955L21.3078 3.84945C21.4212 3.73514 21.5561 3.64442 21.7047 3.5825C21.8533 3.52059 22.0127 3.48871 22.1737 3.48871C22.3347 3.48871 22.4941 3.52059 22.6427 3.5825C22.7914 3.64442 22.9262 3.73514 23.0396 3.84945L26.1861 7.00809C26.4132 7.23659 26.5407 7.54569 26.5407 7.86788C26.5407 8.19007 26.4132 8.49917 26.1861 8.72766L23.3933 11.5326H13.6369V13.9717C13.6369 14.2952 13.5084 14.6054 13.2797 14.8341C13.0509 15.0628 12.7407 15.1913 12.4173 15.1913C12.0939 15.1913 11.7837 15.0628 11.5549 14.8341C11.3262 14.6054 11.1977 14.2952 11.1977 13.9717V10.3131C11.1977 9.66619 11.4547 9.0458 11.9121 8.58837C12.3696 8.13095 12.99 7.87398 13.6369 7.87398ZM6.31953 13.9717V18.85L3.52676 21.6427C3.29961 21.8712 3.17212 22.1803 3.17212 22.5025C3.17212 22.8247 3.29961 23.1338 3.52676 23.3623L6.6732 26.521C6.78658 26.6353 6.92146 26.726 7.07008 26.7879C7.21869 26.8498 7.37809 26.8817 7.53909 26.8817C7.70008 26.8817 7.85949 26.8498 8.0081 26.7879C8.15671 26.726 8.2916 26.6353 8.40497 26.521L13.6369 21.2891H18.5151C18.8385 21.2891 19.1487 21.1606 19.3774 20.9319C19.6061 20.7032 19.7346 20.393 19.7346 20.0695V18.85H20.9542C21.2776 18.85 21.5878 18.7215 21.8165 18.4928C22.0452 18.264 22.1737 17.9539 22.1737 17.6304V16.4109H23.3933C23.7167 16.4109 24.0269 16.2824 24.2556 16.0537C24.4844 15.8249 24.6128 15.5147 24.6128 15.1913V13.9717H16.076V15.1913C16.076 15.8382 15.819 16.4586 15.3616 16.916C14.9041 17.3734 14.2837 17.6304 13.6369 17.6304H11.1977C10.5509 17.6304 9.93046 17.3734 9.47304 16.916C9.01562 16.4586 8.75864 15.8382 8.75864 15.1913V11.5326L6.31953 13.9717Z" fill="#292E3D"/>
</g>
<defs>
<clipPath id="clip0_108_590">
<rect width="29.2693" height="29.2693" fill="white" transform="translate(0.22168 0.556641)"/>
</clipPath>
</defs>
</svg>
