<svg width="24" height="25" viewBox="0 0 24 25" fill="none" xmlns="http://www.w3.org/2000/svg">
<path d="M23.9638 18.9011L17.1953 12.1326L19.11 10.2179L14.5367 5.64454L12.622 7.55924L5.85345 0.790719L0.0849609 6.55921L6.85348 13.3277L1.04841 19.1328V23.7061H5.62173L11.4268 17.9011L18.1953 24.6696L23.9638 18.9011ZM8.58525 11.596L3.5363 6.55921L5.85345 4.24206L7.40228 5.79089L5.95101 7.24216L7.67058 8.96173L9.12185 7.51046L10.8902 9.27881L8.58525 11.596ZM13.1586 16.1693L15.4757 13.8521L17.2441 15.6205L15.7928 17.0718L17.5124 18.7913L18.9637 17.3401L20.5125 18.8889L18.1953 21.206L13.1586 16.1693ZM15.8453 4.34328L18.9405 1.24683L23.5114 5.81772L20.4161 8.91417L15.8453 4.34328Z" fill="#F9995D"/>
</svg>
