<svg width="30" height="30" viewBox="0 0 30 30" fill="none" xmlns="http://www.w3.org/2000/svg">
<g clip-path="url(#clip0_108_615)">
<rect x="0.578369" y="12.7522" width="17.0738" height="17.0738" fill="#7595FD"/>
<path d="M24.3597 4.21528C23.5513 4.21593 22.7762 4.53736 22.2045 5.10899C21.6329 5.68063 21.3115 6.45575 21.3108 7.26417C21.3108 7.69955 21.4059 8.11298 21.5718 8.48982L19.1876 11.1716C18.3776 10.6125 17.4168 10.3131 16.4326 10.3131C15.5301 10.3131 14.696 10.5765 13.9703 11.0033L11.1971 8.23127L11.169 8.25932C11.408 7.77394 11.5544 7.23368 11.5544 6.65439C11.5544 5.93078 11.3398 5.22341 10.9378 4.62175C10.5358 4.02008 9.96437 3.55114 9.29583 3.27423C8.6273 2.99731 7.89166 2.92486 7.18195 3.06603C6.47224 3.2072 5.82033 3.55565 5.30866 4.06733C4.79699 4.579 4.44853 5.23091 4.30736 5.94062C4.16619 6.65033 4.23865 7.38597 4.51556 8.0545C4.79248 8.72303 5.26142 9.29444 5.86308 9.69646C6.46474 10.0985 7.17211 10.3131 7.89572 10.3131C8.47501 10.3131 9.01405 10.1667 9.50066 9.92767L9.47261 9.95572L12.2459 12.7278C11.7979 13.4717 11.559 14.3228 11.5544 15.1913C11.5544 16.4072 12.0178 17.5072 12.7556 18.3633L9.61285 21.5049C9.26061 21.3639 8.88491 21.2907 8.5055 21.289C6.82496 21.289 5.45662 22.6562 5.45662 24.3379C5.45662 26.0197 6.82496 27.3868 8.5055 27.3868C10.186 27.3868 11.5544 26.0197 11.5544 24.3379C11.5544 23.9464 11.4739 23.5745 11.3385 23.2293L14.7996 19.7682C15.313 19.9512 15.857 20.0695 16.4326 20.0695C19.1229 20.0695 21.3108 17.8816 21.3108 15.1913C21.3108 14.4156 21.112 13.6924 20.7888 13.04L23.3706 10.1338C23.6828 10.2411 24.0121 10.3131 24.3597 10.3131C26.0415 10.3131 27.4086 8.94593 27.4086 7.26417C27.4086 5.5824 26.0415 4.21528 24.3597 4.21528ZM16.4326 17.6304C15.0874 17.6304 13.9935 16.5364 13.9935 15.1913C13.9935 13.8461 15.0874 12.7522 16.4326 12.7522C17.7778 12.7522 18.8717 13.8461 18.8717 15.1913C18.8717 16.5364 17.7778 17.6304 16.4326 17.6304Z" fill="white"/>
</g>
<defs>
<clipPath id="clip0_108_615">
<rect width="29.2693" height="29.2693" fill="white" transform="translate(0.578369 0.556641)"/>
</clipPath>
</defs>
</svg>
