<svg width="17" height="17" viewBox="0 0 17 17" fill="none" xmlns="http://www.w3.org/2000/svg">
<g clip-path="url(#clip0_108_196)">
<rect x="0.171631" y="7.4635" width="9.3657" height="9.3657" fill="#7595FD"/>
<path d="M4.42627 13.3371L4.59351 14.8223L5.67726 13.7921L7.53033 8.70782C7.07542 8.59409 6.67404 8.36664 6.34624 8.05222L4.42627 13.3371ZM10.0524 8.05222C9.72458 8.36664 9.3165 8.59409 8.86829 8.70782L10.7214 13.7921L11.8051 14.8223L11.979 13.3371L10.0524 8.05222ZM10.1661 6.52695C10.3668 5.48334 9.76472 4.56015 8.86829 4.23904V3.44965C8.86829 3.08171 8.56725 2.78067 8.19931 2.78067C7.83137 2.78067 7.53033 3.08171 7.53033 3.44965V4.23904C6.75431 4.52001 6.19237 5.25589 6.19237 6.12556C6.19237 7.35648 7.30288 8.33319 8.57394 8.09905C9.36333 7.95187 10.0122 7.31634 10.1661 6.52695ZM8.19931 6.79454C7.83137 6.79454 7.53033 6.4935 7.53033 6.12556C7.53033 5.75762 7.83137 5.45658 8.19931 5.45658C8.56725 5.45658 8.86829 5.75762 8.86829 6.12556C8.86829 6.4935 8.56725 6.79454 8.19931 6.79454Z" fill="#292E3D"/>
</g>
<defs>
<clipPath id="clip0_108_196">
<rect width="16.0555" height="16.0555" fill="white" transform="translate(0.171631 0.773743)"/>
</clipPath>
</defs>
</svg>
