<svg width="17" height="17" viewBox="0 0 17 17" fill="none" xmlns="http://www.w3.org/2000/svg">
<g clip-path="url(#clip0_108_184)">
<rect x="0.0827637" y="7.5459" width="9.3657" height="9.3657" fill="#7595FD"/>
<path d="M7.44141 4.86996H9.44835L11.6493 2.66233C11.7115 2.59963 11.7855 2.54986 11.867 2.5159C11.9485 2.48193 12.0359 2.46445 12.1243 2.46445C12.2126 2.46445 12.3 2.48193 12.3815 2.5159C12.4631 2.54986 12.537 2.59963 12.5992 2.66233L14.3252 4.39498C14.4498 4.52032 14.5197 4.68988 14.5197 4.86661C14.5197 5.04335 14.4498 5.2129 14.3252 5.33824L12.7932 6.87689H7.44141V8.21485C7.44141 8.39227 7.37093 8.56243 7.24547 8.68789C7.12002 8.81335 6.94986 8.88383 6.77243 8.88383C6.59501 8.88383 6.42485 8.81335 6.2994 8.68789C6.17394 8.56243 6.10346 8.39227 6.10346 8.21485V6.20792C6.10346 5.85307 6.24442 5.51275 6.49534 5.26184C6.74625 5.01092 7.08657 4.86996 7.44141 4.86996ZM3.42754 8.21485V10.8908L1.89558 12.4227C1.77099 12.5481 1.70105 12.7176 1.70105 12.8944C1.70105 13.0711 1.77099 13.2406 1.89558 13.366L3.62155 15.0986C3.68374 15.1613 3.75773 15.2111 3.83925 15.2451C3.92077 15.279 4.00821 15.2965 4.09652 15.2965C4.18484 15.2965 4.27227 15.279 4.3538 15.2451C4.43532 15.2111 4.50931 15.1613 4.5715 15.0986L7.44141 12.2287H10.1173C10.2948 12.2287 10.4649 12.1582 10.5904 12.0328C10.7158 11.9073 10.7863 11.7372 10.7863 11.5597V10.8908H11.4553C11.6327 10.8908 11.8029 10.8203 11.9283 10.6948C12.0538 10.5694 12.1243 10.3992 12.1243 10.2218V9.55281H12.7932C12.9707 9.55281 13.1408 9.48233 13.2663 9.35687C13.3917 9.23141 13.4622 9.06125 13.4622 8.88383V8.21485H8.77937V8.88383C8.77937 9.23868 8.63841 9.57899 8.38749 9.82991C8.13658 10.0808 7.79626 10.2218 7.44141 10.2218H6.10346C5.74861 10.2218 5.40829 10.0808 5.15738 9.82991C4.90646 9.57899 4.7655 9.23868 4.7655 8.88383V6.87689L3.42754 8.21485Z" fill="#292E3D"/>
</g>
<defs>
<clipPath id="clip0_108_184">
<rect width="16.0555" height="16.0555" fill="white" transform="translate(0.0827637 0.856125)"/>
</clipPath>
</defs>
</svg>
