<svg width="17" height="17" viewBox="0 0 17 17" fill="none" xmlns="http://www.w3.org/2000/svg">
<g clip-path="url(#clip0_108_178)">
<rect x="0.171631" y="7.5459" width="9.3657" height="9.3657" fill="#7595FD"/>
<path d="M13.2167 2.86307C12.7733 2.86343 12.3481 3.03974 12.0345 3.35331C11.721 3.66688 11.5446 4.09207 11.5443 4.53552C11.5443 4.77434 11.5965 5.00113 11.6874 5.20784L10.3796 6.67892C9.9353 6.37225 9.40823 6.20799 8.86837 6.20796C8.37333 6.20796 7.91575 6.35246 7.51771 6.5866L5.99645 5.06602L5.98106 5.0814C6.11218 4.81515 6.19246 4.51879 6.19246 4.20103C6.19246 3.80409 6.07475 3.41607 5.85423 3.08603C5.63371 2.756 5.32027 2.49876 4.95355 2.34686C4.58683 2.19496 4.1833 2.15522 3.79399 2.23266C3.40468 2.31009 3.04708 2.50124 2.76641 2.78191C2.48573 3.06259 2.29459 3.42019 2.21715 3.80949C2.13971 4.1988 2.17946 4.60233 2.33136 4.96905C2.48326 5.33577 2.74049 5.64921 3.07053 5.86973C3.40057 6.09026 3.78859 6.20796 4.18552 6.20796C4.50329 6.20796 4.79898 6.12769 5.0659 5.99657L5.05051 6.01195L6.57177 7.53254C6.32601 7.94064 6.19497 8.4075 6.19246 8.88388C6.19246 9.55085 6.44667 10.1543 6.8514 10.6239L5.12745 12.3472C4.93422 12.2698 4.72814 12.2297 4.52001 12.2288C3.59816 12.2288 2.84757 12.9787 2.84757 13.9012C2.84757 14.8237 3.59816 15.5737 4.52001 15.5737C5.44187 15.5737 6.19246 14.8237 6.19246 13.9012C6.19246 13.6865 6.14831 13.4824 6.07405 13.2931L7.97261 11.3946C8.25425 11.4949 8.55262 11.5598 8.86837 11.5598C10.3441 11.5598 11.5443 10.3596 11.5443 8.88388C11.5443 8.45841 11.4352 8.0617 11.258 7.7038L12.6742 6.10962C12.8454 6.16849 13.0261 6.20796 13.2167 6.20796C14.1393 6.20796 14.8892 5.45804 14.8892 4.53552C14.8892 3.613 14.1393 2.86307 13.2167 2.86307ZM8.86837 10.2218C8.13049 10.2218 7.53042 9.62176 7.53042 8.88388C7.53042 8.14599 8.13049 7.54592 8.86837 7.54592C9.60626 7.54592 10.2063 8.14599 10.2063 8.88388C10.2063 9.62176 9.60626 10.2218 8.86837 10.2218Z" fill="white"/>
</g>
<defs>
<clipPath id="clip0_108_178">
<rect width="16.0555" height="16.0555" fill="white" transform="translate(0.171631 0.856125)"/>
</clipPath>
</defs>
</svg>
