<svg width="16" height="15" viewBox="0 0 16 15" fill="none" xmlns="http://www.w3.org/2000/svg">
<path d="M13.7758 4.79736C14.1307 4.79736 14.471 4.93833 14.7219 5.18924C14.9728 5.44016 15.1138 5.78047 15.1138 6.13532V8.81123C15.1138 9.16608 14.9728 9.5064 14.7219 9.75731C14.471 10.0082 14.1307 10.1492 13.7758 10.1492H13.0654C12.9023 11.4425 12.2728 12.6319 11.2951 13.4941C10.3173 14.3563 9.05858 14.832 7.755 14.832V13.4941C8.81955 13.4941 9.84049 13.0712 10.5932 12.3184C11.346 11.5657 11.7689 10.5448 11.7689 9.48021V5.46634C11.7689 4.4018 11.346 3.38085 10.5932 2.62811C9.84049 1.87536 8.81955 1.45247 7.755 1.45247C6.69046 1.45247 5.66951 1.87536 4.91677 2.62811C4.16402 3.38085 3.74113 4.4018 3.74113 5.46634V10.1492H1.7342C1.37935 10.1492 1.03903 10.0082 0.788119 9.75731C0.537203 9.5064 0.39624 9.16608 0.39624 8.81123V6.13532C0.39624 5.78047 0.537203 5.44016 0.788119 5.18924C1.03903 4.93833 1.37935 4.79736 1.7342 4.79736H2.44465C2.6079 3.50416 3.23744 2.31497 4.21515 1.45292C5.19286 0.59088 6.45153 0.115234 7.755 0.115234C9.05847 0.115234 10.3171 0.59088 11.2949 1.45292C12.2726 2.31497 12.9021 3.50416 13.0654 4.79736H13.7758ZM4.91853 10.0054L5.62765 8.87077C6.26524 9.27017 7.00265 9.48143 7.755 9.48021C8.50736 9.48143 9.24477 9.27017 9.88235 8.87077L10.5915 10.0054C9.74137 10.538 8.75816 10.8197 7.755 10.8182C6.75184 10.8197 5.76863 10.538 4.91853 10.0054Z" fill="#F9995D"/>
</svg>
